<?xml version="1.0" standalone="no"?>
<!DOCTYPE svg PUBLIC "-//W3C//DTD SVG 20010904//EN"
 "http://www.w3.org/TR/2001/REC-SVG-20010904/DTD/svg10.dtd">
<svg version="1.0" xmlns="http://www.w3.org/2000/svg"
 width="512.000000pt" height="512.000000pt" viewBox="0 0 512.000000 512.000000"
 preserveAspectRatio="xMidYMid meet">
<metadata>
Created by potrace 1.14, written by Peter Selinger 2001-2017
</metadata>
<g transform="translate(0.000000,512.000000) scale(0.100000,-0.100000)"
fill="#000000" stroke="none">
<path d="M1304 5093 c-32 -6 -74 -14 -92 -17 -64 -11 -248 -78 -350 -128 -100
-49 -221 -125 -312 -196 -47 -37 -197 -186 -239 -236 -100 -121 -206 -318
-254 -472 -60 -189 -57 -87 -57 -2146 l0 -1888 1933 0 c1879 0 1934 1 2013 20
385 92 720 324 936 646 58 88 138 241 138 267 0 7 4 17 9 23 10 10 46 131 56
184 11 62 13 74 21 130 8 61 12 3807 4 3819 -3 4 -847 7 -1876 7 -1432 0
-1885 -3 -1930 -13z"/>
</g>
</svg>
